<svg width="28" height="28" viewBox="0 0 28 28" fill="none" xmlns="http://www.w3.org/2000/svg">
    <g clip-path="url(#clip0_1:492)">
        <path d="M10.6414 20.9294C8.69201 20.9294 7.10608 22.5154 7.10608 24.4648C7.10608 26.4141 8.69201 28.0001 10.6414 28.0001C12.5908 28.0001 14.1767 26.4141 14.1767 24.4648C14.1767 22.5154 12.5907 20.9294 10.6414 20.9294ZM10.6414 25.8789C9.8615 25.8789 9.22729 25.2446 9.22729 24.4648C9.22729 23.6849 9.8615 23.0507 10.6414 23.0507C11.4209 23.0507 12.0555 23.6849 12.0555 24.4648C12.0555 25.2446 11.4213 25.8789 10.6414 25.8789Z"
              fill="#0F2438" stroke="white" stroke-width="0.3"/>
        <path d="M21.1061 20.9294C19.1567 20.9294 17.5708 22.5154 17.5708 24.4648C17.5708 26.4141 19.1567 28.0001 21.1061 28.0001C23.0555 28.0001 24.6414 26.4141 24.6414 24.4648C24.6414 22.5154 23.0555 20.9294 21.1061 20.9294ZM21.1061 25.8789C20.3262 25.8789 19.692 25.2446 19.692 24.4648C19.692 23.6849 20.3262 23.0507 21.1061 23.0507C21.886 23.0507 22.5202 23.6849 22.5202 24.4648C22.5202 25.2446 21.886 25.8789 21.1061 25.8789Z"
              fill="#0F2438" stroke="white" stroke-width="0.3"/>
        <path d="M27.239 6.90559C27.0375 6.65245 26.7321 6.50506 26.4089 6.50506H7.83808L6.87399 1.6327C6.7895 1.20597 6.45296 0.874023 6.02481 0.795547L1.78244 0.0177841C1.20516 -0.0886374 0.653642 0.293572 0.547931 0.869812C0.442221 1.44605 0.823665 1.99861 1.39996 2.10432L4.93314 2.75198L8.04561 18.4837C8.14389 18.9804 8.5798 19.3385 9.08604 19.3385H23.9343C24.4282 19.3385 24.8563 18.9981 24.9677 18.5162L27.4424 7.80427C27.5152 7.48927 27.4402 7.15836 27.239 6.90559ZM23.0907 17.2174H9.9571L8.25769 8.6266H25.0751L23.0907 17.2174Z"
              fill="#0F2438" stroke="white" stroke-width="0.3"/>
    </g>
    <defs>
        <clipPath id="clip0_1:492">
            <rect width="28" height="28" fill="white"/>
        </clipPath>
    </defs>
</svg>
