<svg width="28" height="28" viewBox="0 0 28 28" fill="none" xmlns="http://www.w3.org/2000/svg">
    <g clip-path="url(#clip0_1:506)">
        <path d="M13.9999 26.4422C13.6013 26.4422 13.217 26.2978 12.9175 26.0355C11.7864 25.0464 10.6958 24.1169 9.73365 23.297L9.72874 23.2928C6.90785 20.8889 4.47192 18.8129 2.77703 16.7679C0.882414 14.4817 -6.10352e-05 12.3141 -6.10352e-05 9.94606C-6.10352e-05 7.64534 0.788847 5.52279 2.22119 3.96911C3.67062 2.39706 5.65944 1.53125 7.82195 1.53125C9.43821 1.53125 10.9184 2.04224 12.2213 3.04989C12.8788 3.55853 13.4748 4.18103 13.9999 4.90713C14.5252 4.18103 15.121 3.55853 15.7787 3.04989C17.0816 2.04224 18.5618 1.53125 20.1781 1.53125C22.3404 1.53125 24.3294 2.39706 25.7789 3.96911C27.2112 5.52279 27.9999 7.64534 27.9999 9.94606C27.9999 12.3141 27.1176 14.4817 25.223 16.7677C23.5281 18.8129 21.0924 20.8887 18.2719 23.2923C17.3081 24.1135 16.2158 25.0445 15.0821 26.0359C14.7828 26.2978 14.3983 26.4422 13.9999 26.4422ZM7.82195 3.17144C6.123 3.17144 4.56228 3.84948 3.42687 5.0808C2.27459 6.33071 1.63992 8.05849 1.63992 9.94606C1.63992 11.9377 2.38012 13.7188 4.03976 15.7213C5.64385 17.657 8.0298 19.6902 10.7924 22.0446L10.7975 22.0488C11.7633 22.8719 12.8581 23.805 13.9976 24.8014C15.1439 23.8031 16.2404 22.8685 17.2081 22.0441C19.9705 19.6898 22.3562 17.657 23.9603 15.7213C25.6197 13.7188 26.3599 11.9377 26.3599 9.94606C26.3599 8.05849 25.7252 6.33071 24.573 5.0808C23.4378 3.84948 21.8768 3.17144 20.1781 3.17144C18.9335 3.17144 17.7909 3.56707 16.7819 4.34722C15.8828 5.04278 15.2564 5.92205 14.8892 6.53728C14.7004 6.85366 14.368 7.0425 13.9999 7.0425C13.6318 7.0425 13.2994 6.85366 13.1106 6.53728C12.7436 5.92205 12.1173 5.04278 11.2179 4.34722C10.209 3.56707 9.0663 3.17144 7.82195 3.17144Z"
              fill="#0F2438"/>
    </g>
    <defs>
        <clipPath id="clip0_1:506">
            <rect width="28" height="27.9999" fill="white"/>
        </clipPath>
    </defs>
</svg>
