<svg width="28" height="28" viewBox="0 0 28 28" fill="none" xmlns="http://www.w3.org/2000/svg">
    <path d="M13.8004 13.4877C15.6534 13.4877 17.2577 12.8232 18.5689 11.5119C19.8797 10.2009 20.5445 8.59683 20.5445 6.74365C20.5445 4.89111 19.8799 3.2868 18.5687 1.97537C17.2575 0.664581 15.6532 0 13.8004 0C11.9472 0 10.3431 0.664581 9.03213 1.97559C7.72113 3.28659 7.05634 4.8909 7.05634 6.74365C7.05634 8.59683 7.72113 10.2011 9.03213 11.5121C10.3436 12.8229 11.9479 13.4877 13.8004 13.4877ZM10.1925 3.13577C11.1985 2.12982 12.3785 1.64084 13.8004 1.64084C15.2221 1.64084 16.4023 2.12982 17.4085 3.13577C18.4145 4.14194 18.9037 5.3222 18.9037 6.74365C18.9037 8.16553 18.4145 9.34558 17.4085 10.3517C16.4023 11.3579 15.2221 11.8469 13.8004 11.8469C12.379 11.8469 11.1989 11.3577 10.1925 10.3517C9.18637 9.34579 8.69717 8.16553 8.69717 6.74365C8.69717 5.3222 9.18637 4.14194 10.1925 3.13577Z"
          fill="#0F2438"/>
    <path d="M25.6007 21.5307C25.5629 20.9851 25.4865 20.3899 25.3739 19.7614C25.2602 19.1283 25.1139 18.5297 24.9387 17.9826C24.7576 17.4171 24.5117 16.8587 24.2073 16.3236C23.8918 15.7682 23.5209 15.2845 23.1048 14.8866C22.6696 14.4702 22.1368 14.1355 21.5208 13.8913C20.9068 13.6484 20.2264 13.5254 19.4986 13.5254C19.2128 13.5254 18.9363 13.6426 18.4025 13.9902C18.0739 14.2045 17.6896 14.4523 17.2607 14.7263C16.8939 14.9601 16.397 15.179 15.7833 15.3773C15.1845 15.571 14.5765 15.6693 13.9762 15.6693C13.3764 15.6693 12.7684 15.571 12.1692 15.3773C11.5561 15.1792 11.059 14.9603 10.6928 14.7266C10.2679 14.455 9.88342 14.2072 9.54996 13.99C9.01654 13.6424 8.74011 13.5251 8.45428 13.5251C7.72626 13.5251 7.04608 13.6484 6.43234 13.8915C5.81668 14.1353 5.28369 14.47 4.84811 14.8868C4.43198 15.285 4.06113 15.7684 3.74582 16.3236C3.44183 16.8587 3.19574 17.4169 3.01459 17.9828C2.83963 18.5299 2.6933 19.1283 2.57965 19.7614C2.46686 20.3891 2.39059 20.9844 2.35278 21.5313C2.31561 22.066 2.29681 22.6225 2.29681 23.1848C2.29681 24.6464 2.76144 25.8296 3.67767 26.7023C4.58258 27.5634 5.77972 28 7.23599 28H20.7182C22.174 28 23.3712 27.5634 24.2763 26.7023C25.1927 25.8303 25.6573 24.6466 25.6573 23.1845C25.6571 22.6204 25.6381 22.0639 25.6007 21.5307ZM23.1449 25.5135C22.547 26.0826 21.7532 26.3592 20.718 26.3592H7.23599C6.20056 26.3592 5.40674 26.0826 4.80902 25.5137C4.22263 24.9555 3.93765 24.1935 3.93765 23.1848C3.93765 22.6601 3.95496 22.1421 3.98956 21.6447C4.02332 21.1568 4.09232 20.6209 4.19464 20.0513C4.29568 19.4889 4.42429 18.961 4.57724 18.4831C4.724 18.0249 4.92416 17.5712 5.17239 17.1341C5.4093 16.7175 5.68188 16.3601 5.98267 16.0722C6.26401 15.8028 6.61862 15.5823 7.03647 15.417C7.42291 15.264 7.85721 15.1803 8.32867 15.1677C8.38614 15.1982 8.48846 15.2566 8.65424 15.3647C8.99155 15.5845 9.38034 15.8353 9.81015 16.1098C10.2946 16.4187 10.9189 16.6977 11.6646 16.9384C12.427 17.1849 13.2046 17.3101 13.9764 17.3101C14.7483 17.3101 15.5261 17.1849 16.2881 16.9386C17.0345 16.6974 17.6584 16.4187 18.1436 16.1093C18.5834 15.8282 18.9613 15.5847 19.2986 15.3647C19.4644 15.2568 19.5667 15.1982 19.6242 15.1677C20.0959 15.1803 20.5302 15.264 20.9168 15.417C21.3345 15.5823 21.6891 15.803 21.9704 16.0722C22.2712 16.3599 22.5438 16.7173 22.7807 17.1343C23.0291 17.5712 23.2295 18.0251 23.3761 18.4829C23.5292 18.9614 23.6581 19.4891 23.7589 20.0511C23.861 20.6217 23.9302 21.1579 23.964 21.645V21.6454C23.9988 22.1408 24.0163 22.6586 24.0165 23.1848C24.0163 24.1937 23.7313 24.9555 23.1449 25.5135Z"
          fill="#0F2438"/>
</svg>
